<?xml version="1.0" encoding="UTF-8" standalone="no"?>
<!-- Created with Inkscape (http://www.inkscape.org/) -->

<svg
   xmlns:dc="http://purl.org/dc/elements/1.1/"
   xmlns:cc="http://creativecommons.org/ns#"
   xmlns:rdf="http://www.w3.org/1999/02/22-rdf-syntax-ns#"
   xmlns:svg="http://www.w3.org/2000/svg"
   xmlns="http://www.w3.org/2000/svg"
   xmlns:inkscape="http://www.inkscape.org/namespaces/inkscape"
   version="1.1"
   width="607.5"
   height="145"
   id="svg2"
   xml:space="preserve"><metadata
     id="metadata8"><rdf:RDF><cc:Work
         rdf:about=""><dc:format>image/svg+xml</dc:format><dc:type
           rdf:resource="http://purl.org/dc/dcmitype/StillImage" /></cc:Work></rdf:RDF></metadata><defs
     id="defs6"><clipPath
       id="clipPath18"><path
         d="M 0,1158.81 0,0 l 4854.94,0 0,1158.81 -4854.94,0 z"
         inkscape:connector-curvature="0"
         id="path20" /></clipPath></defs><g
     transform="matrix(1.25,0,0,-1.25,0,145)"
     id="g10"><g
       transform="scale(0.1,0.1)"
       id="g12"><g
         id="g14"><g
           clip-path="url(#clipPath18)"
           id="g16"><path
             d="M 529.77,781.914 C 486.023,655.578 349.473,264.309 349.473,264.309 l -20.414,0 -223.118,607.25 -36.6558,96.777 -69.2852,0 0,24.449 286.305,0 0,-24.449 -89.641,0 27.492,-81.492 155.887,-429.93 2.031,0 129.41,373.898 -50.957,137.524 -86.605,0 0,24.449 311.769,0 0,-24.449 -100.832,0 27.528,-79.469 157.922,-431.953 2.019,0 140.567,429.93 23.437,81.492 -89.644,0 0,24.449 202.722,0 0,-24.449 -72.332,0 -31.582,-89.645 -201.707,-614.382 -21.43,0 -192.589,517.605 z m 1836.09,-178.34 c 5.42,74.336 32.54,146.309 110.8,146.309 83.31,0 101.63,-65.098 103.47,-134.004 0.16,-6.406 0.23,-28.711 0.23,-34.824 l -215.4,0 c 0,6.679 0.4,15.547 0.9,22.519 z m 307.83,-190.84 c -28.11,-66.172 -75.11,-118.886 -161.14,-118.886 -128.64,0 -147.59,98.047 -147.59,248.32 l 0,7.969 331.07,0 c 0,133.633 -74.05,225.39 -212.4,225.39 -150.9,0 -232.36,-116.308 -232.36,-256.289 0,-145.957 76.44,-256.289 231.39,-256.289 95.87,0 173.69,36.231 214.39,142.168 l -23.36,7.617 z m -1597.08,190.84 c 5.43,74.336 32.54,146.309 110.8,146.309 83.32,0 101.64,-65.098 103.48,-134.004 0.15,-6.406 0.23,-28.711 0.23,-34.824 l -215.41,0 c 0,6.679 0.41,15.547 0.9,22.519 z m 307.83,-190.84 c -28.12,-66.172 -75.09,-118.886 -161.13,-118.886 -128.65,0 -147.6,98.047 -147.6,248.32 l 0,7.969 331.08,0 c 0,133.633 -74.05,225.39 -212.41,225.39 -150.89,0 -232.36,-116.308 -232.36,-256.289 0,-145.957 76.45,-256.289 231.39,-256.289 95.88,0 173.69,36.231 214.39,142.168 l -23.36,7.617 z m 1765.5,295.379 c 0,39.504 -29.24,69.407 -83.48,69.407 -81.13,0 -121.38,-72.793 -142.32,-130.625 l -1.29,0 0,134.648 c -16.13,-13.242 -32.46,-25.996 -75.51,-25.996 -31.28,0 -111.96,0 -111.96,0 l 0,-24.922 85.75,0 0,-430.781 -85.75,0 0,-24.942 270.25,0 0,24.942 -82.78,0 0,212.402 c 0,113.008 55.49,235.734 126.78,235.734 5.31,0 8.91,-0.625 11.83,-1.988 -12.24,-9.844 -20.07,-24.906 -20.07,-41.828 0,-31.359 24.06,-53.719 53.73,-53.719 32.32,0 54.82,26.879 54.82,57.668 z M 2204.3,360.461 c -13.02,-28.984 -33.69,-57.539 -70.66,-57.539 -38.01,0 -53.74,23.828 -53.74,82.656 l 0,345.047 122.71,0 0,24.922 -122.71,0 0,164.726 -21.05,0 C 2045.21,813.938 1991.86,759.52 1895.24,750.254 l 0,-19.609 -0.02,-0.02 80.82,0 0,-341.043 c 0,-63.809 12.43,-124.648 116.15,-124.648 65.38,0 105.06,30.156 125.76,69.336 l 7.96,15.898 -21.61,10.293 z m 971.78,-60.617 0,-24.942 266.25,0 0,24.942 -78.79,0 0,259.277 c 0,92.734 47.78,182.52 137.99,182.52 50.71,0 81.42,-28.633 81.42,-103.711 l 0,-338.086 -78.78,0 0,-24.942 259.28,0 0,24.942 -78.78,0 0,335.078 c 0,99.707 -48.87,142.617 -146.6,142.617 -81.77,0 -141.6,-39.922 -172.52,-107.734 l -2.01,0 0,109.785 c -13.43,-11.055 -31.6,-24.043 -75.9,-24.043 -28.89,0 -105.55,0 -105.55,0 l 0,-24.922 79.75,0 0,-430.781 -85.76,0 z M 1796.04,779.699 c -9.25,-10.39 -21.57,-16.094 -36.66,-16.094 -33.61,0 -54.3,13.915 -105.69,13.915 -87.95,0 -156.11,-47.801 -156.11,-134.559 0,-177.609 272.23,-139.699 272.23,-267.336 0,-57.813 -42.09,-85.238 -94.29,-85.238 -97.54,0 -154.88,63.453 -176.2,156.566 l -24.28,0 32.66,-178.699 c 10.56,12.363 24.43,16.851 38.34,16.851 28.12,0 63.75,-21.531 127.07,-21.531 101.66,0 178.47,56.582 178.47,152.949 0,192.696 -276.48,141.825 -276.48,266.364 0,39.64 28.22,68.949 79.2,68.949 80.81,0 125.98,-57.059 145.41,-124.852 l 23.93,0 -27.6,152.715"
             inkscape:connector-curvature="0"
             id="path22"
             style="fill:#472380;fill-opacity:1;fill-rule:nonzero;stroke:none" /><path
             d="m 4854.91,679.363 -0.06,416.677 c -107.82,38.11 -277.06,62.77 -467.92,62.77 -187.18,0 -353.82,-24.54 -461.6,-62.77 l -0.05,-422.72 c 0,-62.308 -2.82,-172.605 53.83,-304.656 C 4049.46,204.695 4185.63,81.3906 4379.98,4.10938 L 4390.08,0 l 9.99,4.07031 c 194.49,77.32029 330.67,200.62469 401.01,364.59369 56.69,132.039 53.83,250.945 53.83,310.699"
             inkscape:connector-curvature="0"
             id="path24"
             style="fill:#ffffff;fill-opacity:1;fill-rule:nonzero;stroke:none" /><path
             d="m 4647.4,500.078 c 0.65,1.258 1.01,3.004 1.01,4.012 0,0.734 -0.08,1.73 -0.83,2.508 -0.78,0.773 -2.76,1.156 -4.76,1.156 -2.05,0 -4.22,-0.316 -5.42,-1.09 -0.16,-0.562 -0.42,-1.297 -0.75,-2.062 3.78,-0.036 7.8,-0.942 10.75,-4.524 z m 19.03,-83.137 -0.8,0 c -0.6,-6.461 -4.23,-16.269 -6.46,-19.824 l 4.14,3.262 2.7,-3.262 2.71,3.246 3.87,-3.246 c -2.13,3.754 -5.55,13.399 -6.16,19.824 z m 48.21,-3.078 c 0.88,1.282 1.96,3.121 1.96,3.121 -4.05,6.172 -7.11,12.907 -6.56,20.692 0.61,8.457 5.36,10.988 9.03,10.832 3.34,-0.117 5.6,-2.672 5.78,-6.387 2.86,2.399 4.08,5.18 4.27,8.016 0.18,2.187 -0.92,5.566 -4.65,6.519 6.73,6.227 6.06,18.676 -0.82,23.442 0.96,-8.938 -5.7,-15.086 -11.68,-20.879 -8.04,-7.766 -9.08,-16.59 -7.69,-25.77 -4.76,9.219 -6.97,17.91 -6.35,26.508 0.66,9.629 5.53,19.57 12.56,19.066 2.25,-0.16 4.61,-1.296 5.55,-3.332 3.36,5.637 0.97,11.86 -4.42,12.329 5.53,13.257 -3.42,26.578 -10.83,29.468 1.92,-3.996 2.84,-8.023 2.51,-12.644 -0.91,-12.766 -12.03,-22.918 -13.17,-41.875 -1.22,-20.535 10.2,-38.344 22.42,-51.961 0,0 1.04,1.312 2.09,2.855 z m -72.98,31.227 -0.8,0 c -0.62,-6.457 -4.18,-16.254 -6.43,-19.817 l 4.15,3.254 2.67,-3.254 2.72,3.243 3.85,-3.243 c -2.08,3.739 -5.53,13.411 -6.16,19.817 z m -14.51,73.98 c -0.57,-1.035 -0.55,-2.082 -0.33,-2.957 0.01,-0.09 0.4,-0.578 0.45,-0.656 -0.39,-1.633 -0.3,-3.762 0.34,-6.719 0.38,-1.715 1.92,-2.336 4.83,-2.39 0.04,-0.723 0.13,-1.43 0.27,-2.078 0.02,-0.082 0.02,-0.192 0.05,-0.274 -1.72,-0.473 -3.37,-0.75 -4.87,-0.66 -4.55,0.293 -7.37,2.809 -6.8,7.406 0.12,0.84 0.34,1.535 0.79,2.297 0.19,0.391 0,0.699 -0.38,0.84 -1.62,0.574 -6.3,-3.285 -7.01,-8.598 -0.64,-5.105 2.18,-7.929 6.4,-8.172 2.29,-0.136 5.44,0.18 8.77,1.493 5.62,2.277 12.03,2.992 15.97,-0.954 -2.96,0.551 -10.63,-0.031 -12.82,-0.441 -3.3,-0.598 -4.87,-7.434 -1.25,-7.645 2.8,-0.16 13.13,0.465 13.7,0.297 -1.05,-4.48 -7.73,-10.132 -14.21,-11.5 -3.98,1.657 -15.46,1.243 -20.69,-0.32 -6.59,7.441 -11.37,21.215 -11.91,25.766 -0.26,2.09 -0.32,4.476 0.75,6.406 2.08,3.742 6.27,3.41 8.27,6.641 1.07,1.761 0.6,3.828 0.9,5.757 0.13,0.805 1.84,3.711 -0.3,4.657 -0.92,-1.141 -2.41,-2 -4.31,-1.414 -1.25,0.418 -2.61,0.836 -3.96,0.253 -2.26,-1.007 -2.73,-3.832 -4.51,-5.707 -0.92,-1.011 -2.16,-0.558 -1.89,1.067 0.45,2.609 1.74,5.051 1.34,7.726 -0.41,2.704 -2.42,4.77 -5.16,6.289 -1.18,0.645 -2.53,1.809 -3.85,2.149 -1.29,0.328 -2.38,-0.141 -2.43,-0.719 0.62,-0.457 1.14,-1.172 1.18,-2.234 0.03,-2.418 -2.56,-3.731 -2.61,-6.012 -0.08,-3.492 2.38,-6.656 2.61,-8.519 0.2,-1.383 -1.02,-1.403 -1.84,-0.954 -1.83,0.973 -4.65,2.539 -7.27,2.594 -2.16,0.02 -3.6,-1.695 -5.45,-2.476 -0.8,-0.305 -4.24,-0.278 -3.55,-1.907 1.88,-0.382 3.27,-1.586 3.9,-3.343 0.48,-1.329 0.77,-2.407 2.02,-3.313 2.09,-1.473 6.46,-1.105 8.6,-1.461 1.37,-0.265 2.95,-1.086 3.36,-3.918 0.29,-1.957 -0.42,-4.168 -1.35,-5.785 -1.66,-2.922 -2.51,-5.941 -1.7,-8.766 0.77,1.071 1.59,1.528 2.48,1.528 1.85,0 2.39,-2.114 1.06,-5.012 -1.22,-2.594 -1.98,-5.555 -0.78,-8.922 0.54,1.117 1.49,1.832 2.54,1.832 1.65,0 2.58,-1.754 1.39,-4.988 -1.09,-2.969 -1.4,-5.789 -0.18,-8.582 0.44,1.234 1.44,2.066 2.62,2.066 1.78,0 2.51,-1.789 3.17,-3.347 2.06,-5.047 5.35,-7.657 13.55,-7.657 -2.85,-5.394 -26.56,-1.914 -36.19,-0.812 -2.08,0.242 -3.26,0.812 -3.85,2.527 -1.52,3.785 2.01,6.899 -0.06,10.895 -0.97,1.968 -2.57,2.449 -4.25,3.554 -0.76,0.489 -2.95,3.282 -4.38,2.075 0.59,-1.481 0.45,-2.754 -1.21,-4.262 -1.1,-0.965 -2.18,-1.789 -2.39,-3.402 -0.31,-2.676 1.9,-5.223 2.6,-7.571 0.62,-1.699 -0.44,-2.406 -1.88,-1.324 -2.27,1.719 -5.61,5.793 -9.11,5.793 -2.39,0 -3.04,-1.441 -4.94,-2.301 -0.85,-0.367 -4.56,-0.761 -4.21,-2.578 1.63,-0.281 3.02,-1.207 3.45,-3.387 0.32,-1.441 0.64,-2.898 1.93,-3.867 3.2,-2.437 8.22,-1.355 11.19,-1.969 1.17,-0.238 1.36,-1.246 0.24,-1.929 -2.5,-1.481 -6.03,-2.461 -7.27,-4.949 -1.02,-2.051 -0.39,-4.375 -0.43,-6.383 -0.03,-0.883 -1.21,-3.696 0.76,-4.289 0.99,1.32 2.33,2.32 4.61,2 1.49,-0.188 2.71,-0.852 4.18,-0.129 2.45,1.262 2.68,3.535 3.98,5.644 0.69,1.09 1.76,2.164 3.51,2.164 1.07,0 2.1,-0.246 2.98,-1.007 1.9,-1.684 1.68,-5.711 7.5,-6.575 -0.32,0.633 -0.45,1.399 -0.45,2.051 0,1.18 0.67,2.109 1.86,2.109 1.32,0 2.26,-0.636 3.48,-2.691 1.54,-2.641 3.19,-3.418 5.8,-3.73 -0.34,0.644 -0.54,1.484 -0.54,2.242 0,1.219 0.7,1.996 1.8,1.996 0.7,0 1.95,-0.266 3.01,-2.074 1.68,-2.86 2.91,-4.207 5.84,-4.532 -0.86,1.665 -0.17,3.887 2.02,3.887 2.23,0 7.81,-1.93 11.96,-3.648 -0.13,-10.684 6.83,-22.153 17.14,-29.114 -0.38,2.024 0.68,3.164 2.19,3.164 4.17,0 6.29,-9.855 15.66,-14.328 -0.47,1.875 0.53,3.086 1.87,3.086 1.11,0 2.59,-0.695 3.41,-1.14 8.38,-4.532 17.29,-10.258 21.59,-14.016 8.71,2.664 22.93,11.18 32.22,20.734 -5.73,1.758 -21.55,13.622 -27.04,19.305 -9.92,10.211 -12.58,20.902 -12.58,28.828 0,2.645 0.4,5.133 1.03,7.102 2.91,-1.723 7,-1.473 9.49,0.851 -4.54,3.555 -3.84,10.536 -2.32,13.055 2.5,-2.062 7.07,-1.43 9.39,0.633 -3.44,2.152 -5.32,7.758 -3.53,12.57 1.91,-1.992 6.44,-2.133 9.16,0.117 -3.62,3.055 -5.48,7.891 -4.47,13.59 1.67,-2.293 4.84,-2.605 7.22,-1.676 -1.46,3.086 -1.56,8.161 -1.99,11.536 -0.56,4.632 -1.91,9.879 -3.45,12.683 -5,4.293 -20.13,10.399 -29.61,10.399 -1.28,0 -2.54,-0.192 -3.6,-0.438 -2.61,-0.605 -4.48,-1.515 -4.59,-1.996 -1.41,-2.207 -4.91,-2.691 -8.04,-3.531 -2.24,-0.629 -8.28,-2.266 -10.59,-3.606 z m 29.61,1.582 c -0.75,0.043 -1.48,0.137 -2.19,0.266 -0.7,0.148 -0.98,0.5 -1.16,0.672 -0.2,0.238 -0.83,1.004 -2.48,1.113 -2.93,0.168 -4.37,-2.023 -4.55,-3.367 -0.12,-1.004 0.14,-2.031 0.75,-2.797 0.58,-0.652 1.31,-1.035 2.16,-1.109 0.58,-0.051 1.22,0.027 1.85,0.273 l 0.07,0.059 c 1.19,0.66 1.81,1.668 2.21,2.73 0.17,0.434 1.56,1.012 3.1,1.059 0.3,0 0.53,0.187 0.59,0.48 0.08,0.313 -0.07,0.602 -0.35,0.621 z m 30.7,21.938 c 0.67,-0.82 1.09,-1.836 1.1,-2.969 0.07,-2.711 -2.08,-4.98 -4.79,-5.039 -2.7,-0.074 -4.94,2.07 -5.02,4.785 -0.08,2.5 1.74,4.598 4.15,4.965 l -5.61,8.695 -9.61,-4.168 c 0.99,-0.859 1.64,-2.113 1.67,-3.547 0.08,-2.714 -2.06,-4.98 -4.78,-5.05 -2.73,-0.055 -4.98,2.078 -5.06,4.793 -0.04,2.105 1.23,3.918 3.05,4.664 -2.87,3.07 -9.06,7.676 -14.99,9.668 4.56,-8.301 7.1,-18.633 6.9,-27.188 6.17,0.406 23.1,-4.808 29.54,-9.64 5.22,7.722 13.06,15.07 21.79,18.144 -4.19,1.418 -12.35,2.727 -18.34,1.887 z m -159.64,-75 c 0.12,60.797 49.15,110 109.5,109.922 60.39,-0.129 109.25,-49.504 109.14,-110.317 -0.11,-60.789 -49.15,-109.992 -109.5,-109.906 -60.37,0.109 -109.24,50.746 -109.14,110.301 z m -395.8,44.961 c 0.52,0.484 1.32,1.273 2.13,1.687 1.68,0.95 3.98,1.434 5.51,1.7 0.73,-1.122 0.44,-3.04 -0.84,-4.461 -1.34,-1.543 -2.8,-0.821 -4.18,-0.192 -0.97,0.461 -1.73,0.422 -2.12,0.434 -0.52,-0.012 -0.82,0.504 -0.5,0.832 z m 81.2,0.492 c 0.24,-3.305 -1.42,-8.867 -2.69,-10.352 -1.18,-0.359 -4.28,-0.652 -6.59,-0.804 -1.45,-0.039 -1.85,-0.25 -2.75,-1.735 -2.7,-4.625 -5.13,-8.902 -7.99,-14.414 -0.61,-6.465 -0.6,-12.75 -1.1,-20.394 -0.2,-2.707 0.16,-6.285 -1.64,-9.36 -2.39,-3.058 -5,-5.242 -7.11,-6.718 -0.43,-0.27 -1.03,-1.036 0.79,-0.485 1.07,0.309 6.13,2.852 7.22,3.207 3.57,1.164 7.68,5.563 13.37,0.043 2.75,-2.656 6.91,-5.148 11.87,-8.519 1.84,-1.223 2.81,-0.992 5.25,-3.16 1.99,-1.758 2.92,-5.625 4.09,-7.598 3.02,-5.215 3.37,-8.418 3.32,-9.613 -1.97,-1.075 -9.11,-1.137 -11.98,-0.297 -0.97,1.785 -0.89,4.488 -1.47,5.867 -1.01,2.559 -1.93,3.801 -3.26,4.738 -2.17,1.539 -3.82,3.309 -6.08,4.578 -5.49,3.067 -6.19,3.856 -10.28,1.852 -3.69,-1.805 -9.49,-7.031 -15.54,-10.223 -4.77,-2.312 -17.84,0.071 -21.44,3.324 1.21,-3.57 8.55,-7.589 14.03,-10.179 -0.76,-1.914 -2.73,-12 -6.74,-17.86 -0.25,1.418 -1.12,2.497 -2.4,2.497 -3.7,0 -2.99,-7.879 -6.52,-11.915 -0.25,1.247 -1.07,2.532 -2.54,2.532 -3.45,0 -3.06,-7.403 -6.95,-11.297 -0.43,1.637 -1.37,2.793 -2.95,2.793 -1.54,0 -2.96,-1.489 -4.33,-2.93 -4.68,-5.004 -6.88,-7.894 -11.33,-12.59 -14.99,0.891 -37.13,11.262 -45,20.715 14.21,15.188 26.97,30.426 33.22,34.816 3,8.965 11.92,27.899 15.21,36.661 -0.42,0.875 -0.86,1.644 -1.34,2.504 -2.2,-1.266 -4.82,-1.559 -5.94,-0.946 0.93,2.446 1,6.313 -0.05,9.321 -1.58,-0.914 -3.85,-1.43 -5.46,-0.774 0.98,2.945 1.18,6.379 0.23,9.176 0,0 -0.02,0.035 -0.06,0.07 -2.04,-0.914 -3.94,-1.226 -5.41,-0.683 0.85,3.304 1.65,6.429 0.65,10.578 -0.1,0.304 -0.24,0.586 -0.32,0.902 -2.71,-1.383 -12.25,-3.101 -14.43,-2.238 -1.35,1.094 6.83,9.394 13.68,16.289 -6.47,-2.867 -14.93,-5.926 -27.85,-8.496 -7.38,-1.477 -22.79,-4.211 -33.74,-2.223 -1.84,0.313 -1.41,2.719 0.34,2.735 5.75,0.019 13.54,0.328 19.22,1.738 1.53,0.351 3.94,1.676 -0.46,2.422 -4.65,0.832 -13.19,2.222 -17.44,3.648 -1.51,0.5 -0.7,2.305 0.58,2.203 5.23,-0.398 11.44,-1.48 15.91,-1.66 2.61,-0.07 3.77,0.25 1.79,1.941 -1.19,1.012 -4.87,3.356 -8.61,5.582 -0.84,0.489 -0.7,1.626 0.31,1.793 2.96,0.497 14.6,-6.773 22.4,-8.906 1.76,-0.5 3.24,-0.797 4.7,-0.543 1.57,0.293 1.83,1.207 1.7,1.875 -0.32,1.844 -8.01,5.504 -11.75,7.985 -1.54,1.019 0.07,2.191 1.69,1.711 4.17,-1.196 13.66,-6.204 17.98,-6.743 3.45,-0.41 4.68,0.528 4.51,1.5 -0.42,2.321 -13.57,8.485 -16.72,10.801 -0.75,0.574 0.31,1.625 1.19,1.488 6.73,-0.835 19.83,-9.871 25.61,-8.847 0.63,0.101 1.45,0.582 1.3,1.418 -0.46,2.59 -11.39,8.261 -14.08,10.113 -1.34,0.91 0.22,1.844 2.12,1.402 3.99,-0.906 10.2,-4.062 13.95,-5.937 1.76,-0.887 3.22,-1.25 5.06,-0.926 2.39,0.434 4.46,2.926 3.49,8.106 -1,5.281 -5.9,7.355 -9.32,8.289 -3.82,1.054 -0.98,2.832 2.29,2.207 6.27,-1.192 10.86,-4.16 11.94,-9.719 0.16,-0.906 0.2,-2.156 0.25,-3.356 0.11,-3.066 2.29,-1.972 4.11,0.594 3.47,4.84 4.19,9.703 3.61,12.988 -1.03,5.704 -9.06,7.989 -9.06,9.344 0,0.442 0.48,0.84 0.91,0.91 3.1,0.559 11.58,-3.078 12.8,-9.902 0.63,-3.602 -0.04,-5.551 -0.65,-9.047 -0.14,-0.742 0.37,-1.367 1.53,-0.191 4.05,4.058 7.4,11.375 6.23,17.957 -1.25,7.054 -8.47,9.496 -8.7,10.691 -0.05,0.305 0.54,0.758 1.1,0.863 2.95,0.516 10.94,-4.187 12.49,-11.964 1.35,-6.907 -1.88,-21.2 -23.29,-32.633 8.99,1.988 11.47,1.699 12.44,0.613 10.34,2.766 16.92,4.871 19.62,4.27 2.87,-4.454 -3.25,-6.223 -3.32,-9.528 0.07,-3.203 7.2,2.125 5.96,-2.918 -2.16,-3.976 -4.94,-4.254 -8.14,-5.468 -1.64,-1.122 -8,-5.661 -11.45,-8.493 10.31,-7.187 20.9,-18.129 21.59,-18.648 0.63,-1.602 3.17,-6.117 6.04,-12.914 0.09,-0.117 0.18,-0.277 0.24,-0.387 1.48,4.399 3.83,11.809 4.87,15.492 0.91,3.219 0.59,4.289 1.63,6.207 0.88,1.621 3.78,4.293 6.36,8.141 2.31,3.406 6.03,8.715 7.32,10.727 2.18,3.324 4.34,2.652 8.32,3.734 1.51,0.406 6.07,0.684 7.84,0.582 z m -70.84,-155.551 c 60.36,-0.078 109.43,49.137 109.51,109.942 0.11,60.808 -48.76,110.203 -109.16,110.316 -60.33,0.078 -109.4,-49.125 -109.51,-109.918 -0.09,-60.836 48.78,-110.215 109.16,-110.34 z m 531.31,-124.308 -283.61,231.211 -283.6,-231.192 c -146.36,169.938 -145.31,366.016 -144.89,446.918 l 0.05,133.117 0.53,0 427.91,-348.843 427.89,348.843 0.57,0 0.01,-133.117 c 0.47,-80.902 1.53,-277.016 -144.86,-446.937 z m -199.67,471.504 c 3.98,3.105 6.66,6.382 6.66,12.003 0,6.473 -4.33,10.614 -9.32,10.614 -5.71,0 -8.82,-4.571 -8.82,-9.399 0,-5.094 3.54,-8.554 11.48,-13.218 z m 5.47,-21.336 c 0,5 -2.35,8.21 -12.72,14.511 -4.57,-2.418 -7,-7.183 -7,-11.601 0,-8.102 5.7,-11.996 10.28,-11.996 6.47,0 9.44,4.75 9.44,9.086 z m -15.13,15.8 c -5.97,3.559 -10.11,8.727 -10.11,15.375 0,5.707 4.14,15.903 17.6,15.903 10.75,0 15.39,-6.75 15.39,-12.785 0,-6.305 -2.24,-10.016 -11.24,-14.161 8.73,-4.425 12.63,-9.156 12.63,-15.984 0,-9.434 -7.45,-16.348 -18.76,-16.348 -10.19,0 -16.66,7.008 -16.66,14.325 0,8.05 6.33,12.031 11.15,13.675 z m -57.48,-1.75 2.52,0 2.05,5.379 23.88,0 -23.26,-47.676 4.3,-1.187 29.07,57.09 -0.7,0.762 -35.67,0 -2.19,-14.368 z m 30.03,62.809 c 19.06,0 43.05,-3.57 68.3,-3.609 l 0,-127.18 c -45.87,4.617 -99.79,8.262 -111.66,-14 l 0,6.683 c 10.73,20.079 58.99,18.317 104.65,13.887 l 0,3.656 c -46.07,4.422 -90.19,6.286 -104.65,-11.41 l 0,114.301 c 2.87,13.961 19.38,17.652 43.36,17.672 z m -81.9,-55.523 c 3.97,3.105 6.65,6.382 6.65,12.003 0,6.473 -4.32,10.614 -9.33,10.614 -5.7,0 -8.81,-4.571 -8.81,-9.399 0,-5.094 3.53,-8.554 11.49,-13.218 z m 5.45,-21.336 c 0,5 -2.34,8.21 -12.74,14.511 -4.59,-2.418 -6.98,-7.183 -6.98,-11.601 0,-8.102 5.7,-11.996 10.31,-11.996 6.46,0 9.41,4.75 9.41,9.086 z m -15.14,15.8 c -5.94,3.559 -10.1,8.727 -10.1,15.375 0,5.707 4.16,15.903 17.62,15.903 10.72,0 15.38,-6.75 15.38,-12.785 0,-6.305 -2.22,-10.016 -11.22,-14.161 8.69,-4.425 12.6,-9.156 12.6,-15.984 0,-9.434 -7.42,-16.348 -18.73,-16.348 -10.22,0 -16.69,7.008 -16.69,14.325 0,8.05 6.32,12.031 11.14,13.675 z m -54.65,-26.968 c 5.45,0.101 11.18,0.257 15.67,0.257 5.89,0 10.78,-0.156 15.61,-0.257 l 0,2.601 -2.49,0 c -7.69,0 -8.27,0.774 -8.27,5.875 l 0,22.051 c 0,6.051 0.93,6.461 6.04,6.461 l 4.72,0 0,2.598 c -4.99,-0.09 -10.27,-0.274 -15.61,-0.274 -4.92,0 -10.38,0.184 -15.67,0.274 l 0,-2.598 4.78,0 c 5.09,0 6.05,-0.41 6.05,-6.461 l 0,-22.051 c 0,-5.101 -0.61,-5.875 -8.32,-5.875 l -2.51,0 0,-2.601 z m 96.02,-50.079 0,-6.683 c -11.84,22.262 -65.77,18.617 -111.64,14 l 0,127.18 c 24.71,0.226 49.07,3.609 68.08,3.609 24.13,0 40.69,-3.672 43.56,-17.672 l 0,-114.301 c -14.68,17.457 -58.56,15.821 -104.47,11.41 l 0,-3.656 c 45.46,4.375 93.41,5.856 104.47,-13.887 z m -10.34,-23.296 c -1.32,2.277 -6.56,14.093 -35.58,14.093 l -84.87,0 0,137.153 6.24,0 0,-130.907 77.59,0 c 5.89,0 11.01,-0.332 15.38,-1.035 15.68,-2.476 22.19,-8.707 25.23,-13.086 l 19.87,-0.019 c 2.96,4.426 9.23,10.629 24.76,13.105 4.35,0.703 9.41,1.035 15.32,1.035 l 77.8,0 0,130.461 6.24,0 0,-136.707 -85.06,0 c -29,0 -33.85,-11.918 -34.88,-14.093 l -28.04,0 z m 392.93,214.492 -757.9,0 -48.45,50.847 96.72,-32.191 c -7.95,24.09 -30.06,32.43 -44.33,53.039 -8.5,12.223 -11.36,24.27 -10.42,36.801 2.6,-4.461 7.26,-10.59 14.57,-15.637 6.99,-4.828 16.39,-8.582 29.17,-11.344 22.83,-4.925 34.6,-12.144 44.66,-21.429 l -49.5,88.543 85.27,-54.977 c -3.54,25.352 -21.04,38.492 -29.73,61.918 -5.17,13.953 -5.03,26.473 -1,38.359 1.39,-4.95 4.37,-12.062 10.2,-18.761 5.57,-6.383 13.71,-12.375 25.42,-18.239 21.62,-10.796 31.23,-21.035 38.75,-33.023 l -26.28,99.263 68.56,-73.997 c 2.74,24.898 -10.73,42.067 -13.31,66.777 -1.54,14.8 1.59,27 8.43,37.54 0.12,-5.17 1.28,-12.79 5.25,-20.72 3.79,-7.57 10.22,-15.41 20.12,-23.97 18.88,-16.46 25.42,-29.038 29.71,-43.069 l -0.73,104.169 47.72,-88.29 c 9.33,22.39 -0.51,42.97 3.12,67.39 2.16,14.72 8.61,25.9 17.88,34.37 -1.16,-5 -1.98,-12.68 -0.08,-21.34 1.77,-8.28 6.05,-17.46 13.51,-28.23 14.56,-21.08 17.55,-35.05 18.11,-50.061 l 0.18,0.023 25.4,102.058 24.39,-97.92 c 14.71,20.18 10.94,43.08 20.64,65.98 5.81,13.7 14.72,21.85 25.81,27.73 -2.41,-4.55 -5.1,-11.77 -5.45,-20.64 -0.33,-8.47 1.51,-18.41 6.01,-30.72 8.59,-23.39 8.1,-37.48 5.1,-51.761 l 49.4,91.411 -0.71,-100.505 c 19.16,15.086 20.52,38.975 35.51,58.605 9.05,11.81 19.92,17.45 32.15,20.4 -3.48,-3.83 -7.86,-10.15 -10.43,-18.64 -2.41,-8.15 -3.11,-18.23 -1.8,-31.26 2.56,-25.394 -1.54,-39.093 -8.26,-52.445 l 0.06,-0.023 71.45,77.138 -25.62,-96.865 c 21.49,10.25 29.26,30.809 48.53,46.012 11.66,9.215 23.51,13.727 36.04,13.543 -4.29,-2.859 -10.11,-7.89 -14.71,-15.512 -4.36,-7.242 -7.54,-16.836 -9.5,-29.793 -3.82,-25.132 -11.09,-37.41 -20.87,-48.632 l 0.42,-0.309 88.41,57.016 -48.84,-87.301 c 23.8,3.394 35.3,22.41 57.57,32.246 13.59,6.012 26.55,7.57 38.68,4.293 -4.89,-1.715 -11.79,-5.133 -18.12,-11.356 -6.02,-5.957 -11.49,-14.468 -16.61,-26.511 -9.94,-23.274 -19.95,-33.305 -32.16,-41.727 l 0.52,-0.64 99.8,33.214 -48.43,-50.847 z m -277.53,-589.77 c -2.11,-0.64 -4.63,-1.566 -6.61,-2.539 -1.32,-0.633 -2.1,-1.051 -2.26,-2.125 -0.12,-0.734 0.7,-1.808 1.15,-2.312 -1.2,-4.446 -11.75,-3.887 -15.23,-5.11 -2.97,-1.015 -6.44,-4.3 -8.41,-6.418 -1.99,-2.195 -1.31,-1.64 -4.51,-2.281 -5.68,-1.184 -4.43,-6.379 -2.68,-10.5 1.69,-4.141 4.66,-7.449 8.44,-9.906 1.33,-0.899 7.38,-3.238 10.64,-3.238 -3.13,-3.399 -7.53,-2.547 -11.5,-4.204 -2.22,-0.902 -4.21,-2.164 -6.66,-2.695 -3.27,-0.711 -4.93,-0.492 -7.67,-0.043 -4.28,0.809 -7.65,0.621 -11.21,0.242 -2.67,-0.273 -4.96,0.039 -7.27,1.36 -1.04,0.547 -3.07,2.039 -4.07,2.222 -3.27,0.5 -0.65,-4.277 0.03,-5.949 -4.43,-4.219 -14.5,1.602 -18.5,4.063 -3.52,2.129 -5.36,7.062 -9.39,8.351 -0.29,-4.25 -0.08,-8.496 0.09,-12.73 0.51,-12.981 0.8,-25.91 1.2,-38.848 0.23,-7.621 0.42,-15.211 0.67,-22.781 l -14.26,0 1.68,74.918 c -4.53,-0.285 -6.33,-4.492 -10.03,-6.102 -2.32,-0.992 -4.7,-0.535 -6.86,-1.875 -2.29,-1.457 -3.2,-3.371 -5.83,-4.617 -2.22,-0.961 -4.99,-1.344 -7.43,-1.293 -3.05,0.02 -6.43,0.598 -8.11,2.317 1.51,2.726 0,5.55 -1.91,6.585 -2.21,1.149 -5.27,-0.589 -7.17,-1.07 -9.94,-2.492 -21.58,3.625 -30.6,7.02 0,0 21.83,3.683 21.83,16.418 0,3.547 -1.65,6.441 -4.34,8.691 -2.54,2.102 -7.35,4.586 -10.67,5.07 -5.45,0.782 -9.16,-0.636 -12.49,0.703 0.48,1.743 -2.46,4.141 -4.75,5.782 -2.18,1.519 -4.88,2.308 -7.24,3.543 -4.36,2.261 -10.89,6.324 -9.08,12.019 3.5,-1.789 6.89,-2.195 10.06,-0.519 2.51,1.359 3.4,3.324 3.4,6.308 -0.07,4.004 -4.47,6.7 -6.05,9.703 -1.24,2.442 -2.35,4.743 -4.62,6.508 -2.05,1.59 -5.46,2.113 -5.56,5.176 4.19,-1.648 5.34,2.047 2.87,4.805 -2.78,3.09 -6.43,4.562 -8.54,8.429 -1.83,3.442 -3.19,7.493 -3.25,11.469 -0.03,1.156 0.18,4.508 1.84,4.82 1.57,0.325 2.1,-1.746 2.74,-2.734 2.61,-3.824 6.44,-5.691 10.33,-7.629 4.82,-2.418 6.71,-3.719 12.11,-4.691 10.55,-1.879 17.24,-0.332 23.35,5.269 1.05,0.977 3.65,2.832 4.91,2.953 2.12,-3.004 7.68,-8.808 13.13,-10.386 4.04,-1.137 8.66,-6.899 10.75,-8.735 7.28,-6.347 11.76,-2.738 11.73,3.364 -0.05,5.078 -1.92,11.738 -3.03,16.578 -1.75,7.902 -3.29,11.773 -4.38,19.984 -0.65,5.004 -3.42,9.242 -5.29,12.738 -1.85,3.504 -4.49,12.551 2.12,9.371 2.72,-1.292 6.82,-3.757 10.11,-3.316 7.74,1.09 8.69,9.527 10.18,15.832 0.82,3.27 0.83,5.957 2.03,9.223 0.68,1.91 1.59,2.988 2.57,3.019 0.33,-0.968 1.38,-2.73 3.05,-2.73 2.99,0 5.53,5.125 6.28,8.168 0.61,2.558 1.15,5.613 1.88,7.914 1.37,3.945 1.68,8.601 3.79,12.969 0.79,-2.918 2.1,-8.129 2.81,-9.93 1.78,-4.652 3.38,-9.313 6.14,-13.195 2.34,-3.289 5.31,-4.305 9.01,-2.372 1.82,-4.374 1.82,-18.769 5.58,-25.484 2.24,-3.984 5,-5.414 8.38,-5.414 3.04,0 5.19,0.938 7.37,2.231 2.65,1.566 5.6,3.589 7.57,3.589 0.87,0 1.43,-0.445 1.43,-1.285 0,-3.051 -4.68,-11.168 -5.29,-12.894 -1.45,-3.95 -3.71,-8.34 -4.9,-12.309 -0.94,-3.297 -1.95,-7.453 -2.65,-10.945 -0.78,-3.887 -1.47,-8.363 -1.72,-14.481 -0.2,-3.644 0.08,-10.16 2.82,-12.09 3.98,-2.718 8.99,2.661 12.23,5.153 3.87,3.012 7.19,5.926 10.11,9.914 2.19,2.949 6.47,10.664 10.57,10.289 -0.05,-3.086 4.35,-7.457 10.91,-8.457 4.02,-0.613 7.28,0.199 9.64,1.949 3.05,2.223 3.26,2.106 6.73,0.828 7.46,-2.844 19.8,6.895 24.22,10.41 1.5,-1.589 0.12,-4.496 -1.81,-7.41 -3.58,-5.336 -7.55,-7.043 -7.63,-11.011 -0.08,-3.5 -4.32,-10.043 -4.03,-13.961 -1.29,-2.239 -5.4,-4.7 -7.28,-6.243 -5.46,-4.625 -8.78,-9.945 -6.79,-17.234 1.7,-6.301 6.89,-9.34 11.75,-9.34 4.9,0 8.06,3.281 9.68,2.485 0.96,-0.598 -1.42,-3.598 -2.38,-4.399 -2.69,-2.301 -6.96,-4.004 -9.97,-4.922 z m 363.16,455.832 -0.06,416.677 c -107.82,38.11 -277.06,62.76 -467.92,62.76 -187.18,0 -353.82,-24.53 -461.6,-62.76 l -0.05,-422.72 c 0,-62.308 -2.82,-172.605 53.83,-304.652 C 4049.46,204.695 4185.63,81.3906 4379.98,4.10938 L 4390.08,0 l 9.99,4.07031 c 194.49,77.32029 330.67,200.62469 401.01,364.59769 56.69,132.035 53.83,250.941 53.83,310.695"
             inkscape:connector-curvature="0"
             id="path26"
             style="fill:#472380;fill-opacity:1;fill-rule:nonzero;stroke:none" /></g></g></g></g></svg>