<?xml version="1.0" encoding="UTF-8" standalone="no"?>
<!-- Created with Inkscape (http://www.inkscape.org/) -->

<svg
   xmlns:dc="http://purl.org/dc/elements/1.1/"
   xmlns:cc="http://creativecommons.org/ns#"
   xmlns:rdf="http://www.w3.org/1999/02/22-rdf-syntax-ns#"
   xmlns:svg="http://www.w3.org/2000/svg"
   xmlns="http://www.w3.org/2000/svg"
   xmlns:inkscape="http://www.inkscape.org/namespaces/inkscape"
   version="1.1"
   width="388.75"
   height="212.5"
   id="svg2"
   xml:space="preserve"><metadata
     id="metadata8"><rdf:RDF><cc:Work
         rdf:about=""><dc:format>image/svg+xml</dc:format><dc:type
           rdf:resource="http://purl.org/dc/dcmitype/StillImage" /></cc:Work></rdf:RDF></metadata><defs
     id="defs6" /><g
     transform="matrix(1.25,0,0,-1.25,0,212.5)"
     id="g10"><g
       transform="scale(0.1,0.1)"
       id="g12"><path
         d="m 218,224 31.5,0 m 1246.5,0 -31.5,0"
         inkscape:connector-curvature="0"
         id="path14"
         style="fill:none;stroke:#000000;stroke-width:5;stroke-linecap:butt;stroke-linejoin:miter;stroke-miterlimit:3.79999995;stroke-opacity:1;stroke-dasharray:none" /><g
         transform="scale(10,10)"
         id="g16"><text
           transform="matrix(1,0,0,-1,13.7085,20.0648)"
           id="text18"><tspan
             x="0"
             y="0"
             id="tspan20"
             style="font-size:7px;font-variant:normal;font-weight:normal;writing-mode:lr-tb;fill:#000000;fill-opacity:1;fill-rule:nonzero;stroke:none;font-family:Helvetica;-inkscape-font-specification:Helvetica">0</tspan></text>
</g><path
         d="m 218,398 31.5,0 m 1246.5,0 -31.5,0"
         inkscape:connector-curvature="0"
         id="path22"
         style="fill:none;stroke:#000000;stroke-width:5;stroke-linecap:butt;stroke-linejoin:miter;stroke-miterlimit:3.79999995;stroke-opacity:1;stroke-dasharray:none" /><g
         transform="scale(10,10)"
         id="g24"><text
           transform="matrix(1,0,0,-1,3.9792,37.4648)"
           id="text26"><tspan
             x="0 3.892 5.8379998 9.7299995"
             y="0"
             id="tspan28"
             style="font-size:7px;font-variant:normal;font-weight:normal;writing-mode:lr-tb;fill:#000000;fill-opacity:1;fill-rule:nonzero;stroke:none;font-family:Helvetica;-inkscape-font-specification:Helvetica">0.01</tspan></text>
</g><path
         d="m 218,572 31.5,0 m 1246.5,0 -31.5,0"
         inkscape:connector-curvature="0"
         id="path30"
         style="fill:none;stroke:#000000;stroke-width:5;stroke-linecap:butt;stroke-linejoin:miter;stroke-miterlimit:3.79999995;stroke-opacity:1;stroke-dasharray:none" /><g
         transform="scale(10,10)"
         id="g32"><text
           transform="matrix(1,0,0,-1,3.9792,54.8648)"
           id="text34"><tspan
             x="0 3.892 5.8379998 9.7299995"
             y="0"
             id="tspan36"
             style="font-size:7px;font-variant:normal;font-weight:normal;writing-mode:lr-tb;fill:#000000;fill-opacity:1;fill-rule:nonzero;stroke:none;font-family:Helvetica;-inkscape-font-specification:Helvetica">0.02</tspan></text>
</g><path
         d="m 218,746 31.5,0 m 1246.5,0 -31.5,0"
         inkscape:connector-curvature="0"
         id="path38"
         style="fill:none;stroke:#000000;stroke-width:5;stroke-linecap:butt;stroke-linejoin:miter;stroke-miterlimit:3.79999995;stroke-opacity:1;stroke-dasharray:none" /><g
         transform="scale(10,10)"
         id="g40"><text
           transform="matrix(1,0,0,-1,3.9792,72.2648)"
           id="text42"><tspan
             x="0 3.892 5.8379998 9.7299995"
             y="0"
             id="tspan44"
             style="font-size:7px;font-variant:normal;font-weight:normal;writing-mode:lr-tb;fill:#000000;fill-opacity:1;fill-rule:nonzero;stroke:none;font-family:Helvetica;-inkscape-font-specification:Helvetica">0.03</tspan></text>
</g><path
         d="m 218,920 31.5,0 m 1246.5,0 -31.5,0"
         inkscape:connector-curvature="0"
         id="path46"
         style="fill:none;stroke:#000000;stroke-width:5;stroke-linecap:butt;stroke-linejoin:miter;stroke-miterlimit:3.79999995;stroke-opacity:1;stroke-dasharray:none" /><g
         transform="scale(10,10)"
         id="g48"><text
           transform="matrix(1,0,0,-1,3.9792,89.6648)"
           id="text50"><tspan
             x="0 3.892 5.8379998 9.7299995"
             y="0"
             id="tspan52"
             style="font-size:7px;font-variant:normal;font-weight:normal;writing-mode:lr-tb;fill:#000000;fill-opacity:1;fill-rule:nonzero;stroke:none;font-family:Helvetica;-inkscape-font-specification:Helvetica">0.04</tspan></text>
</g><path
         d="m 218,1093.5 31.5,0 m 1246.5,0 -31.5,0"
         inkscape:connector-curvature="0"
         id="path54"
         style="fill:none;stroke:#000000;stroke-width:5;stroke-linecap:butt;stroke-linejoin:miter;stroke-miterlimit:3.79999995;stroke-opacity:1;stroke-dasharray:none" /><g
         transform="scale(10,10)"
         id="g56"><text
           transform="matrix(1,0,0,-1,3.9792,107.015)"
           id="text58"><tspan
             x="0 3.892 5.8379998 9.7299995"
             y="0"
             id="tspan60"
             style="font-size:7px;font-variant:normal;font-weight:normal;writing-mode:lr-tb;fill:#000000;fill-opacity:1;fill-rule:nonzero;stroke:none;font-family:Helvetica;-inkscape-font-specification:Helvetica">0.05</tspan></text>
</g><path
         d="m 218,1267.5 31.5,0 m 1246.5,0 -31.5,0"
         inkscape:connector-curvature="0"
         id="path62"
         style="fill:none;stroke:#000000;stroke-width:5;stroke-linecap:butt;stroke-linejoin:miter;stroke-miterlimit:3.79999995;stroke-opacity:1;stroke-dasharray:none" /><g
         transform="scale(10,10)"
         id="g64"><text
           transform="matrix(1,0,0,-1,3.9792,124.415)"
           id="text66"><tspan
             x="0 3.892 5.8379998 9.7299995"
             y="0"
             id="tspan68"
             style="font-size:7px;font-variant:normal;font-weight:normal;writing-mode:lr-tb;fill:#000000;fill-opacity:1;fill-rule:nonzero;stroke:none;font-family:Helvetica;-inkscape-font-specification:Helvetica">0.06</tspan></text>
</g><path
         d="m 218,1441.5 31.5,0 m 1246.5,0 -31.5,0"
         inkscape:connector-curvature="0"
         id="path70"
         style="fill:none;stroke:#000000;stroke-width:5;stroke-linecap:butt;stroke-linejoin:miter;stroke-miterlimit:3.79999995;stroke-opacity:1;stroke-dasharray:none" /><g
         transform="scale(10,10)"
         id="g72"><text
           transform="matrix(1,0,0,-1,3.9792,141.815)"
           id="text74"><tspan
             x="0 3.892 5.8379998 9.7299995"
             y="0"
             id="tspan76"
             style="font-size:7px;font-variant:normal;font-weight:normal;writing-mode:lr-tb;fill:#000000;fill-opacity:1;fill-rule:nonzero;stroke:none;font-family:Helvetica;-inkscape-font-specification:Helvetica">0.07</tspan></text>
</g><path
         d="m 218,1615.5 31.5,0 m 1246.5,0 -31.5,0"
         inkscape:connector-curvature="0"
         id="path78"
         style="fill:none;stroke:#000000;stroke-width:5;stroke-linecap:butt;stroke-linejoin:miter;stroke-miterlimit:3.79999995;stroke-opacity:1;stroke-dasharray:none" /><g
         transform="scale(10,10)"
         id="g80"><text
           transform="matrix(1,0,0,-1,3.9792,159.215)"
           id="text82"><tspan
             x="0 3.892 5.8379998 9.7299995"
             y="0"
             id="tspan84"
             style="font-size:7px;font-variant:normal;font-weight:normal;writing-mode:lr-tb;fill:#000000;fill-opacity:1;fill-rule:nonzero;stroke:none;font-family:Helvetica;-inkscape-font-specification:Helvetica">0.08</tspan></text>
</g><path
         d="m 218,224 0,31.5 m 0,1360 0,-31.5"
         inkscape:connector-curvature="0"
         id="path86"
         style="fill:none;stroke:#000000;stroke-width:5;stroke-linecap:butt;stroke-linejoin:miter;stroke-miterlimit:3.79999995;stroke-opacity:1;stroke-dasharray:none" /><g
         transform="scale(10,10)"
         id="g88"><text
           transform="matrix(1,0,0,-1,20.8273,13.0648)"
           id="text90"><tspan
             x="0"
             y="0"
             id="tspan92"
             style="font-size:7px;font-variant:normal;font-weight:normal;writing-mode:lr-tb;fill:#000000;fill-opacity:1;fill-rule:nonzero;stroke:none;font-family:Helvetica;-inkscape-font-specification:Helvetica">0</tspan></text>
</g><path
         d="m 420,224 0,31.5 m 0,1360 0,-31.5"
         inkscape:connector-curvature="0"
         id="path94"
         style="fill:none;stroke:#000000;stroke-width:5;stroke-linecap:butt;stroke-linejoin:miter;stroke-miterlimit:3.79999995;stroke-opacity:1;stroke-dasharray:none" /><g
         transform="scale(10,10)"
         id="g96"><text
           transform="matrix(1,0,0,-1,39.0815,13.0648)"
           id="text98"><tspan
             x="0 3.892"
             y="0"
             id="tspan100"
             style="font-size:7px;font-variant:normal;font-weight:normal;writing-mode:lr-tb;fill:#000000;fill-opacity:1;fill-rule:nonzero;stroke:none;font-family:Helvetica;-inkscape-font-specification:Helvetica">30</tspan></text>
</g><path
         d="m 621.5,224 0,31.5 m 0,1360 0,-31.5"
         inkscape:connector-curvature="0"
         id="path102"
         style="fill:none;stroke:#000000;stroke-width:5;stroke-linecap:butt;stroke-linejoin:miter;stroke-miterlimit:3.79999995;stroke-opacity:1;stroke-dasharray:none" /><g
         transform="scale(10,10)"
         id="g104"><text
           transform="matrix(1,0,0,-1,59.2315,13.0648)"
           id="text106"><tspan
             x="0 3.892"
             y="0"
             id="tspan108"
             style="font-size:7px;font-variant:normal;font-weight:normal;writing-mode:lr-tb;fill:#000000;fill-opacity:1;fill-rule:nonzero;stroke:none;font-family:Helvetica;-inkscape-font-specification:Helvetica">60</tspan></text>
</g><path
         d="m 823.5,224 0,31.5 m 0,1360 0,-31.5"
         inkscape:connector-curvature="0"
         id="path110"
         style="fill:none;stroke:#000000;stroke-width:5;stroke-linecap:butt;stroke-linejoin:miter;stroke-miterlimit:3.79999995;stroke-opacity:1;stroke-dasharray:none" /><g
         transform="scale(10,10)"
         id="g112"><text
           transform="matrix(1,0,0,-1,79.4315,13.0648)"
           id="text114"><tspan
             x="0 3.892"
             y="0"
             id="tspan116"
             style="font-size:7px;font-variant:normal;font-weight:normal;writing-mode:lr-tb;fill:#000000;fill-opacity:1;fill-rule:nonzero;stroke:none;font-family:Helvetica;-inkscape-font-specification:Helvetica">90</tspan></text>
</g><path
         d="m 1025,224 0,31.5 m 0,1360 0,-31.5"
         inkscape:connector-curvature="0"
         id="path118"
         style="fill:none;stroke:#000000;stroke-width:5;stroke-linecap:butt;stroke-linejoin:miter;stroke-miterlimit:3.79999995;stroke-opacity:1;stroke-dasharray:none" /><g
         transform="scale(10,10)"
         id="g120"><text
           transform="matrix(1,0,0,-1,97.6355,13.0648)"
           id="text122"><tspan
             x="0 3.892 7.7839999"
             y="0"
             id="tspan124"
             style="font-size:7px;font-variant:normal;font-weight:normal;writing-mode:lr-tb;fill:#000000;fill-opacity:1;fill-rule:nonzero;stroke:none;font-family:Helvetica;-inkscape-font-specification:Helvetica">120</tspan></text>
</g><path
         d="m 1227,224 0,31.5 m 0,1360 0,-31.5"
         inkscape:connector-curvature="0"
         id="path126"
         style="fill:none;stroke:#000000;stroke-width:5;stroke-linecap:butt;stroke-linejoin:miter;stroke-miterlimit:3.79999995;stroke-opacity:1;stroke-dasharray:none" /><g
         transform="scale(10,10)"
         id="g128"><text
           transform="matrix(1,0,0,-1,117.835,13.0648)"
           id="text130"><tspan
             x="0 3.892 7.7839999"
             y="0"
             id="tspan132"
             style="font-size:7px;font-variant:normal;font-weight:normal;writing-mode:lr-tb;fill:#000000;fill-opacity:1;fill-rule:nonzero;stroke:none;font-family:Helvetica;-inkscape-font-specification:Helvetica">150</tspan></text>
</g><path
         d="m 1428.5,224 0,31.5 m 0,1360 0,-31.5"
         inkscape:connector-curvature="0"
         id="path134"
         style="fill:none;stroke:#000000;stroke-width:5;stroke-linecap:butt;stroke-linejoin:miter;stroke-miterlimit:3.79999995;stroke-opacity:1;stroke-dasharray:none" /><g
         transform="scale(10,10)"
         id="g136"><text
           transform="matrix(1,0,0,-1,137.985,13.0648)"
           id="text138"><tspan
             x="0 3.892 7.7839999"
             y="0"
             id="tspan140"
             style="font-size:7px;font-variant:normal;font-weight:normal;writing-mode:lr-tb;fill:#000000;fill-opacity:1;fill-rule:nonzero;stroke:none;font-family:Helvetica;-inkscape-font-specification:Helvetica">180</tspan></text>
</g><path
         d="m 218,224 1278,0 0,1391.5 -1278,0 0,-1391.5 z"
         inkscape:connector-curvature="0"
         id="path142"
         style="fill:none;stroke:#000000;stroke-width:5;stroke-linecap:butt;stroke-linejoin:miter;stroke-miterlimit:3.79999995;stroke-opacity:1;stroke-dasharray:none" /><g
         transform="scale(10,10)"
         id="g144"><text
           transform="matrix(1,0,0,-1,82.7848,2.56484)"
           id="text146"><tspan
             x="0"
             y="0"
             id="tspan148"
             style="font-size:7px;font-variant:normal;font-weight:normal;writing-mode:lr-tb;fill:#000000;fill-opacity:1;fill-rule:nonzero;stroke:none;font-family:Helvetica;-inkscape-font-specification:Helvetica">m</tspan><tspan
             x="-32.438702"
             y="-150"
             id="tspan150"
             style="font-size:7px;font-variant:normal;font-weight:normal;writing-mode:lr-tb;fill:#000000;fill-opacity:1;fill-rule:nonzero;stroke:none;font-family:Helvetica;-inkscape-font-specification:Helvetica">R</tspan></text>
</g><path
         d="m 596,1549 199.5,0 m -564,-1324.5 6.5,0.5 7,0 6.5,0.5 7,0.5 6.5,0.5 7,0.5 6.5,1 7,1 6.5,1.5 13.5,4 13.5,1 13.5,4.5 13.5,5.5 13.5,1.5 20,10.5 20,13 20.5,6 20,16 27,23.5 27,19.5 33.5,42.5 33.5,50 40.5,54 40.5,75 47,115.5 47,130 53.5,131 61,233 67,273 39.5,176"
         inkscape:connector-curvature="0"
         id="path152"
         style="fill:none;stroke:#ff0000;stroke-width:7.5;stroke-linecap:butt;stroke-linejoin:miter;stroke-miterlimit:3.79999995;stroke-opacity:1;stroke-dasharray:none" /><g
         transform="scale(10,10)"
         id="g154"><text
           transform="matrix(1,0,0,-1,30.509,145.565)"
           id="text156"><tspan
             x="0 5.8309999 9.7229996 11.277 17.108 21"
             y="0"
             id="tspan158"
             style="font-size:7px;font-variant:normal;font-weight:normal;writing-mode:lr-tb;fill:#000000;fill-opacity:1;fill-rule:nonzero;stroke:none;font-family:Helvetica;-inkscape-font-specification:Helvetica">mulmod</tspan></text>
</g><path
         d="m 596,1479 199.5,0 m -564,-1255 33.5,0 7,0.5 20,0 13.5,0.5 13.5,1 13.5,0 13.5,1 13.5,1 20,3 20,-0.5 20.5,2.5 20,4.5 27,-0.5 27,5 33.5,9 33.5,0 40.5,11.5 40.5,16 47,1.5 47,-6.5 53.5,13 61,22 67,25.5 74,35 80.5,35 87.5,64.5 94.5,48 107.5,92 L 1476,747"
         inkscape:connector-curvature="0"
         id="path160"
         style="fill:none;stroke:#00ff00;stroke-width:7.5;stroke-linecap:butt;stroke-linejoin:miter;stroke-miterlimit:3.79999995;stroke-opacity:1;stroke-dasharray:20, 10;stroke-dashoffset:0" /><g
         transform="scale(10,10)"
         id="g162"><text
           transform="matrix(1,0,0,-1,28.5633,138.565)"
           id="text164"><tspan
             x="0 1.946 7.777 11.669 13.223 19.054001 22.945999"
             y="0"
             id="tspan166"
             style="font-size:7px;font-variant:normal;font-weight:normal;writing-mode:lr-tb;fill:#000000;fill-opacity:1;fill-rule:nonzero;stroke:none;font-family:Helvetica;-inkscape-font-specification:Helvetica">tmulmod</tspan></text>
</g><path
         d="m 596,1409 199.5,0 m -564,-1185 54,0 6.5,0.5 27,0 13.5,0.5 13.5,0 13.5,0.5 20,0.5 20,0.5 20.5,0.5 20,1.5 27,1 27,2 33.5,3 33.5,3.5 40.5,4.5 40.5,5.5 47,9.5 47,9.5 53.5,13.5 61,19.5 67,17.5 74,29.5 80.5,20.5 87.5,48 94.5,30.5 107.5,64 114.5,122.5"
         inkscape:connector-curvature="0"
         id="path168"
         style="fill:none;stroke:#0000ff;stroke-width:7.5;stroke-linecap:butt;stroke-linejoin:miter;stroke-miterlimit:3.79999995;stroke-opacity:1;stroke-dasharray:10, 15;stroke-dashoffset:0" /><g
         transform="scale(10,10)"
         id="g170"><text
           transform="matrix(1,0,0,-1,33.225,131.565)"
           id="text172"><tspan
             x="0 4.6690001 10.5 14.392 18.284"
             y="0"
             id="tspan174"
             style="font-size:7px;font-variant:normal;font-weight:normal;writing-mode:lr-tb;fill:#000000;fill-opacity:1;fill-rule:nonzero;stroke:none;font-family:Helvetica;-inkscape-font-specification:Helvetica">Embed</tspan></text>
</g><path
         d="m 596,1339 199.5,0 m -564,-1115 33.5,0 7,0.5 20,0 13.5,0.5 13.5,1 13.5,0.5 13.5,1 13.5,-1 20,1 20,1.5 20.5,-1 20,1.5 27,2 27,0.5 33.5,3 33.5,4.5 40.5,3.5 40.5,6 47,9 47,10.5 53.5,9.5 61,20.5 67,23.5 74,26 80.5,36.5 87.5,60 94.5,48 107.5,106 L 1476,748"
         inkscape:connector-curvature="0"
         id="path176"
         style="fill:none;stroke:#ff00ff;stroke-width:7.5;stroke-linecap:butt;stroke-linejoin:miter;stroke-miterlimit:3.79999995;stroke-opacity:1;stroke-dasharray:5, 7.5;stroke-dashoffset:0" /><g
         transform="scale(10,10)"
         id="g178"><text
           transform="matrix(1,0,0,-1,40.6234,124.565)"
           id="text180"><tspan
             x="0 5.0539999 8.9460001"
             y="0"
             id="tspan182"
             style="font-size:7px;font-variant:normal;font-weight:normal;writing-mode:lr-tb;fill:#000000;fill-opacity:1;fill-rule:nonzero;stroke:none;font-family:Helvetica;-inkscape-font-specification:Helvetica">D2M</tspan></text>
</g><path
         d="m 596,1269 199.5,0 m -564,-1045 6.5,0.5 40.5,0 7,0.5 6.5,0 13.5,0.5 13.5,1 13.5,0 13.5,1 13.5,1.5 20,2.5 20,0 20.5,3 20,4.5 27,0 27,5.5 33.5,10 33.5,1 40.5,12.5 40.5,18 47,4.5 47,-4 53.5,17.5 61,27.5 67,32 74,45.5 80.5,44 87.5,80 94.5,58.5 107.5,115.5 114.5,171.5"
         inkscape:connector-curvature="0"
         id="path184"
         style="fill:none;stroke:#00ffff;stroke-width:7.5;stroke-linecap:butt;stroke-linejoin:miter;stroke-miterlimit:3.79999995;stroke-opacity:1;stroke-dasharray:30, 10, 5, 10;stroke-dashoffset:0" /><path
         d="m 218,224 1278,0 0,1391.5 -1278,0 0,-1391.5 z"
         inkscape:connector-curvature="0"
         id="path186"
         style="fill:none;stroke:#000000;stroke-width:5;stroke-linecap:butt;stroke-linejoin:miter;stroke-miterlimit:3.79999995;stroke-opacity:1;stroke-dasharray:none" /><path
         d="m 1683.5,224 31.5,0 m 1246.5,0 -31.5,0"
         inkscape:connector-curvature="0"
         id="path188"
         style="fill:none;stroke:#000000;stroke-width:5;stroke-linecap:butt;stroke-linejoin:miter;stroke-miterlimit:3.79999995;stroke-opacity:1;stroke-dasharray:none" /><g
         transform="scale(10,10)"
         id="g190"><text
           transform="matrix(1,0,0,-1,160.258,20.0648)"
           id="text192"><tspan
             x="0"
             y="0"
             id="tspan194"
             style="font-size:7px;font-variant:normal;font-weight:normal;writing-mode:lr-tb;fill:#000000;fill-opacity:1;fill-rule:nonzero;stroke:none;font-family:Helvetica;-inkscape-font-specification:Helvetica">0</tspan></text>
</g><path
         d="m 1683.5,456 31.5,0 m 1246.5,0 -31.5,0"
         inkscape:connector-curvature="0"
         id="path196"
         style="fill:none;stroke:#000000;stroke-width:5;stroke-linecap:butt;stroke-linejoin:miter;stroke-miterlimit:3.79999995;stroke-opacity:1;stroke-dasharray:none" /><g
         transform="scale(10,10)"
         id="g198"><text
           transform="matrix(1,0,0,-1,154.421,43.2648)"
           id="text200"><tspan
             x="0 3.892 5.8379998"
             y="0"
             id="tspan202"
             style="font-size:7px;font-variant:normal;font-weight:normal;writing-mode:lr-tb;fill:#000000;fill-opacity:1;fill-rule:nonzero;stroke:none;font-family:Helvetica;-inkscape-font-specification:Helvetica">0.5</tspan></text>
</g><path
         d="m 1683.5,688 31.5,0 m 1246.5,0 -31.5,0"
         inkscape:connector-curvature="0"
         id="path204"
         style="fill:none;stroke:#000000;stroke-width:5;stroke-linecap:butt;stroke-linejoin:miter;stroke-miterlimit:3.79999995;stroke-opacity:1;stroke-dasharray:none" /><g
         transform="scale(10,10)"
         id="g206"><text
           transform="matrix(1,0,0,-1,160.258,66.4648)"
           id="text208"><tspan
             x="0"
             y="0"
             id="tspan210"
             style="font-size:7px;font-variant:normal;font-weight:normal;writing-mode:lr-tb;fill:#000000;fill-opacity:1;fill-rule:nonzero;stroke:none;font-family:Helvetica;-inkscape-font-specification:Helvetica">1</tspan></text>
</g><path
         d="m 1683.5,920 31.5,0 m 1246.5,0 -31.5,0"
         inkscape:connector-curvature="0"
         id="path212"
         style="fill:none;stroke:#000000;stroke-width:5;stroke-linecap:butt;stroke-linejoin:miter;stroke-miterlimit:3.79999995;stroke-opacity:1;stroke-dasharray:none" /><g
         transform="scale(10,10)"
         id="g214"><text
           transform="matrix(1,0,0,-1,154.421,89.6648)"
           id="text216"><tspan
             x="0 3.892 5.8379998"
             y="0"
             id="tspan218"
             style="font-size:7px;font-variant:normal;font-weight:normal;writing-mode:lr-tb;fill:#000000;fill-opacity:1;fill-rule:nonzero;stroke:none;font-family:Helvetica;-inkscape-font-specification:Helvetica">1.5</tspan></text>
</g><path
         d="m 1683.5,1151.5 31.5,0 m 1246.5,0 -31.5,0"
         inkscape:connector-curvature="0"
         id="path220"
         style="fill:none;stroke:#000000;stroke-width:5;stroke-linecap:butt;stroke-linejoin:miter;stroke-miterlimit:3.79999995;stroke-opacity:1;stroke-dasharray:none" /><g
         transform="scale(10,10)"
         id="g222"><text
           transform="matrix(1,0,0,-1,160.258,112.815)"
           id="text224"><tspan
             x="0"
             y="0"
             id="tspan226"
             style="font-size:7px;font-variant:normal;font-weight:normal;writing-mode:lr-tb;fill:#000000;fill-opacity:1;fill-rule:nonzero;stroke:none;font-family:Helvetica;-inkscape-font-specification:Helvetica">2</tspan></text>
</g><path
         d="m 1683.5,1383.5 31.5,0 m 1246.5,0 -31.5,0"
         inkscape:connector-curvature="0"
         id="path228"
         style="fill:none;stroke:#000000;stroke-width:5;stroke-linecap:butt;stroke-linejoin:miter;stroke-miterlimit:3.79999995;stroke-opacity:1;stroke-dasharray:none" /><g
         transform="scale(10,10)"
         id="g230"><text
           transform="matrix(1,0,0,-1,154.421,136.015)"
           id="text232"><tspan
             x="0 3.892 5.8379998"
             y="0"
             id="tspan234"
             style="font-size:7px;font-variant:normal;font-weight:normal;writing-mode:lr-tb;fill:#000000;fill-opacity:1;fill-rule:nonzero;stroke:none;font-family:Helvetica;-inkscape-font-specification:Helvetica">2.5</tspan></text>
</g><path
         d="m 1683.5,1615.5 31.5,0 m 1246.5,0 -31.5,0"
         inkscape:connector-curvature="0"
         id="path236"
         style="fill:none;stroke:#000000;stroke-width:5;stroke-linecap:butt;stroke-linejoin:miter;stroke-miterlimit:3.79999995;stroke-opacity:1;stroke-dasharray:none" /><g
         transform="scale(10,10)"
         id="g238"><text
           transform="matrix(1,0,0,-1,160.258,159.215)"
           id="text240"><tspan
             x="0"
             y="0"
             id="tspan242"
             style="font-size:7px;font-variant:normal;font-weight:normal;writing-mode:lr-tb;fill:#000000;fill-opacity:1;fill-rule:nonzero;stroke:none;font-family:Helvetica;-inkscape-font-specification:Helvetica">3</tspan></text>
</g><path
         d="m 1683.5,224 0,31.5 m 0,1360 0,-31.5"
         inkscape:connector-curvature="0"
         id="path244"
         style="fill:none;stroke:#000000;stroke-width:5;stroke-linecap:butt;stroke-linejoin:miter;stroke-miterlimit:3.79999995;stroke-opacity:1;stroke-dasharray:none" /><g
         transform="scale(10,10)"
         id="g246"><text
           transform="matrix(1,0,0,-1,167.377,13.0648)"
           id="text248"><tspan
             x="0"
             y="0"
             id="tspan250"
             style="font-size:7px;font-variant:normal;font-weight:normal;writing-mode:lr-tb;fill:#000000;fill-opacity:1;fill-rule:nonzero;stroke:none;font-family:Helvetica;-inkscape-font-specification:Helvetica">0</tspan></text>
</g><path
         d="m 1885.5,224 0,31.5 m 0,1360 0,-31.5"
         inkscape:connector-curvature="0"
         id="path252"
         style="fill:none;stroke:#000000;stroke-width:5;stroke-linecap:butt;stroke-linejoin:miter;stroke-miterlimit:3.79999995;stroke-opacity:1;stroke-dasharray:none" /><g
         transform="scale(10,10)"
         id="g254"><text
           transform="matrix(1,0,0,-1,185.632,13.0648)"
           id="text256"><tspan
             x="0 3.892"
             y="0"
             id="tspan258"
             style="font-size:7px;font-variant:normal;font-weight:normal;writing-mode:lr-tb;fill:#000000;fill-opacity:1;fill-rule:nonzero;stroke:none;font-family:Helvetica;-inkscape-font-specification:Helvetica">30</tspan></text>
</g><path
         d="m 2087,224 0,31.5 m 0,1360 0,-31.5"
         inkscape:connector-curvature="0"
         id="path260"
         style="fill:none;stroke:#000000;stroke-width:5;stroke-linecap:butt;stroke-linejoin:miter;stroke-miterlimit:3.79999995;stroke-opacity:1;stroke-dasharray:none" /><g
         transform="scale(10,10)"
         id="g262"><text
           transform="matrix(1,0,0,-1,205.782,13.0648)"
           id="text264"><tspan
             x="0 3.892"
             y="0"
             id="tspan266"
             style="font-size:7px;font-variant:normal;font-weight:normal;writing-mode:lr-tb;fill:#000000;fill-opacity:1;fill-rule:nonzero;stroke:none;font-family:Helvetica;-inkscape-font-specification:Helvetica">60</tspan></text>
</g><path
         d="m 2289,224 0,31.5 m 0,1360 0,-31.5"
         inkscape:connector-curvature="0"
         id="path268"
         style="fill:none;stroke:#000000;stroke-width:5;stroke-linecap:butt;stroke-linejoin:miter;stroke-miterlimit:3.79999995;stroke-opacity:1;stroke-dasharray:none" /><g
         transform="scale(10,10)"
         id="g270"><text
           transform="matrix(1,0,0,-1,225.982,13.0648)"
           id="text272"><tspan
             x="0 3.892"
             y="0"
             id="tspan274"
             style="font-size:7px;font-variant:normal;font-weight:normal;writing-mode:lr-tb;fill:#000000;fill-opacity:1;fill-rule:nonzero;stroke:none;font-family:Helvetica;-inkscape-font-specification:Helvetica">90</tspan></text>
</g><path
         d="m 2490.5,224 0,31.5 m 0,1360 0,-31.5"
         inkscape:connector-curvature="0"
         id="path276"
         style="fill:none;stroke:#000000;stroke-width:5;stroke-linecap:butt;stroke-linejoin:miter;stroke-miterlimit:3.79999995;stroke-opacity:1;stroke-dasharray:none" /><g
         transform="scale(10,10)"
         id="g278"><text
           transform="matrix(1,0,0,-1,244.185,13.0648)"
           id="text280"><tspan
             x="0 3.892 7.7839999"
             y="0"
             id="tspan282"
             style="font-size:7px;font-variant:normal;font-weight:normal;writing-mode:lr-tb;fill:#000000;fill-opacity:1;fill-rule:nonzero;stroke:none;font-family:Helvetica;-inkscape-font-specification:Helvetica">120</tspan></text>
</g><path
         d="m 2692.5,224 0,31.5 m 0,1360 0,-31.5"
         inkscape:connector-curvature="0"
         id="path284"
         style="fill:none;stroke:#000000;stroke-width:5;stroke-linecap:butt;stroke-linejoin:miter;stroke-miterlimit:3.79999995;stroke-opacity:1;stroke-dasharray:none" /><g
         transform="scale(10,10)"
         id="g286"><text
           transform="matrix(1,0,0,-1,264.385,13.0648)"
           id="text288"><tspan
             x="0 3.892 7.7839999"
             y="0"
             id="tspan290"
             style="font-size:7px;font-variant:normal;font-weight:normal;writing-mode:lr-tb;fill:#000000;fill-opacity:1;fill-rule:nonzero;stroke:none;font-family:Helvetica;-inkscape-font-specification:Helvetica">150</tspan></text>
</g><path
         d="m 2894,224 0,31.5 m 0,1360 0,-31.5"
         inkscape:connector-curvature="0"
         id="path292"
         style="fill:none;stroke:#000000;stroke-width:5;stroke-linecap:butt;stroke-linejoin:miter;stroke-miterlimit:3.79999995;stroke-opacity:1;stroke-dasharray:none" /><g
         transform="scale(10,10)"
         id="g294"><text
           transform="matrix(1,0,0,-1,284.535,13.0648)"
           id="text296"><tspan
             x="0 3.892 7.7839999"
             y="0"
             id="tspan298"
             style="font-size:7px;font-variant:normal;font-weight:normal;writing-mode:lr-tb;fill:#000000;fill-opacity:1;fill-rule:nonzero;stroke:none;font-family:Helvetica;-inkscape-font-specification:Helvetica">180</tspan></text>
</g><path
         d="m 1683.5,224 1278,0 0,1391.5 -1278,0 0,-1391.5 z"
         inkscape:connector-curvature="0"
         id="path300"
         style="fill:none;stroke:#000000;stroke-width:5;stroke-linecap:butt;stroke-linejoin:miter;stroke-miterlimit:3.79999995;stroke-opacity:1;stroke-dasharray:none" /><g
         transform="scale(10,10)"
         id="g302"><text
           transform="matrix(1,0,0,-1,229.335,2.56484)"
           id="text304"><tspan
             x="0"
             y="0"
             id="tspan306"
             style="font-size:7px;font-variant:normal;font-weight:normal;writing-mode:lr-tb;fill:#000000;fill-opacity:1;fill-rule:nonzero;stroke:none;font-family:Helvetica;-inkscape-font-specification:Helvetica">m</tspan><tspan
             x="-45.0387"
             y="-150"
             id="tspan308"
             style="font-size:7px;font-variant:normal;font-weight:normal;writing-mode:lr-tb;fill:#000000;fill-opacity:1;fill-rule:nonzero;stroke:none;font-family:Helvetica;-inkscape-font-specification:Helvetica">R</tspan></text>
</g><path
         d="m 1935.5,1549 199.5,0 m -438,-1325 60.5,0 13.5,0.5 54,0 20,0.5 20,0 20.5,0.5 20,0.5 27,0.5 27,0.5 33.5,1 33.5,1.5 40.5,1.5 40.5,2 47,3 47,3.5 53.5,3.5 61,6 67,7.5 74,8.5 80.5,12 87.5,17 94.5,18 107.5,22 114.5,40"
         inkscape:connector-curvature="0"
         id="path310"
         style="fill:none;stroke:#ff0000;stroke-width:7.5;stroke-linecap:butt;stroke-linejoin:miter;stroke-miterlimit:3.79999995;stroke-opacity:1;stroke-dasharray:none" /><g
         transform="scale(10,10)"
         id="g312"><text
           transform="matrix(1,0,0,-1,175.344,145.565)"
           id="text314"><tspan
             x="0 4.6690001 8.5609999 10.115"
             y="0"
             id="tspan316"
             style="font-size:7px;font-variant:normal;font-weight:normal;writing-mode:lr-tb;fill:#000000;fill-opacity:1;fill-rule:nonzero;stroke:none;font-family:Helvetica;-inkscape-font-specification:Helvetica">Phi1</tspan></text>
</g><path
         d="m 1935.5,1479 199.5,0 m -438,-1255 60.5,0 13.5,0.5 13.5,0 13.5,0.5 13.5,0.5 13.5,-0.5 20,1 20,1 20.5,-0.5 20,1.5 27,2.5 27,1.5 33.5,4 33.5,7 40.5,7.5 40.5,13 47,18 47,25 53.5,32.5 61,55.5 67,85.5 74,107 80.5,126 87.5,290.5 94.5,294 60.5,318"
         inkscape:connector-curvature="0"
         id="path318"
         style="fill:none;stroke:#ff4d00;stroke-width:7.5;stroke-linecap:butt;stroke-linejoin:miter;stroke-miterlimit:3.79999995;stroke-opacity:1;stroke-dasharray:5, 10, 30, 10, 5, 10;stroke-dashoffset:0" /><g
         transform="scale(10,10)"
         id="g320"><text
           transform="matrix(1,0,0,-1,175.344,138.565)"
           id="text322"><tspan
             x="0 4.6690001 8.5609999 10.115"
             y="0"
             id="tspan324"
             style="font-size:7px;font-variant:normal;font-weight:normal;writing-mode:lr-tb;fill:#000000;fill-opacity:1;fill-rule:nonzero;stroke:none;font-family:Helvetica;-inkscape-font-specification:Helvetica">Phi2</tspan></text>
</g><path
         d="m 1935.5,1409 199.5,0 m -438,-1185 40.5,0 6.5,0.5 13.5,0 13.5,0.5 13.5,0 13.5,0.5 13.5,0.5 13.5,0.5 20,2 20,0.5 20.5,2.5 20,2.5 27,2 27,4.5 33.5,7 33.5,3 40.5,10.5 40.5,18 47,16 47,9 53.5,28.5 61,44 67,48.5 74,71 80.5,79.5 87.5,138.5 94.5,132 107.5,197 114.5,346.5"
         inkscape:connector-curvature="0"
         id="path326"
         style="fill:none;stroke:#808080;stroke-width:7.5;stroke-linecap:butt;stroke-linejoin:miter;stroke-miterlimit:3.79999995;stroke-opacity:1;stroke-dasharray:10, 10, 10, 10, 10, 10, 10, 20;stroke-dashoffset:0" /><path
         d="m 1683.5,224 1278,0 0,1391.5 -1278,0 0,-1391.5 z"
         inkscape:connector-curvature="0"
         id="path328"
         style="fill:none;stroke:#000000;stroke-width:5;stroke-linecap:butt;stroke-linejoin:miter;stroke-miterlimit:3.79999995;stroke-opacity:1;stroke-dasharray:none" /></g></g></svg>